Rod Stewart - Every Picture Tells A Story (1971) - 2011

MFSL Silver Label LP / Cat.#: MOFI 1-0106, USA

LP, Vinyl Rip, 24/96, FLAC (tracks+.cue)

Thanks  86ed

Side 1
 01 - Every Picture Tells a Story (Rod Stewart, Ronnie Wood) – 6:01
 02 - Seems Like a Long Time (Theodore Anderson) – 4:02
 03 - Thats All Right (Arthur Crudup) – 3:59
 04 - Tomorrow Is a Long Time (Bob Dylan) – 3:43
 Amazing Grace is not listed on the label on most editions, and is part of Thats All Right.

Side 2
 01 - Maggie May (Stewart, Quittenton) – 5:16
 02 - Mandolin Wind (Stewart) – 5:33
 03 - (I Know) Im Losing You (Norman Whitfield, Eddie Holland, Cornelius Grant) – 5:23
 04 - Reason to Believe (Tim Hardin) – 4:06

Personnel:
 Rod Stewart - lead vocals, acoustic guitar
 Ronnie Wood - guitar, pedal steel guitar, bass guitar
 Martell Brandy - acoustic guitar
 Sam Mitchell - slide guitar
 Martin Quittenton - acoustic guitar
 Pete Sears - Piano, Celeste
 Micky Waller - drums
 Ian McLagan - organ, Piano on (I Know) Im Losing You
 Danny Thompson - bass guitar
 Andy Pyle - bass guitar
 Dick Powell - violin
 Long John Baldry - vocals on Every Picture Tells a Story
 Maggie Bell - vocal abrasives on Every Picture Tells a Story
 Madeline Bell and friends (Mateus Rose, John Baldry) – vocal abrasives on Seems Like a Long Time
 Lindsay Raymond Jackson (the mandolin player in Lindisfarne) - mandolin
 Kenney Jones - drums on (I Know) Im Losing You
 Ronnie Lane - bass guitar on (I Know) Im Losing You

Tech Log
 power: Dedicated circuit, Monster HTS1000 PowerCenter
 cleaning: steam clean → spin-clean → distilled h2O rinse → vacuum → carbon fibre brush → zerostat
 hw: Technics SL1100-A w/ AT-OC9ML/II → Pro-Ject Tube Box SE II → E-MU 0404 → MacBook Pro
 sw: Peak LE [capture 24-bit/96kHZ] → Izotope RX2 [manual de-click/resample] → Xact [sbe correction] → XLD [flac/proper tagging]

Dynamic Range Analysis
 ----------------------------------------------------------------------------------------------
 Analyzed folder: /Rod Stewart - Every Picture Tells A Story (1971) MFSL (2011) 24-bit 96kHZ vinyl rip [redbook]
 ----------------------------------------------------------------------------------------------
 DR Peak RMS Filename
 ----------------------------------------------------------------------------------------------
 DR13 -0.08 dB -15.99 dB A1 Every Picture Tells A Story.wav
 DR12 -0.71 dB -16.55 dB A2 Seems Like A Long Time.wav
 DR13 -0.64 dB -16.53 dB A3 That's All Right.wav
 DR11 -3.79 dB -17.64 dB A4 Tomorrow Is A Long Time.wav
 DR12 -2.12 dB -16.52 dB B1 Maggie May.wav
 DR13 -1.46 dB -17.93 dB B2 Mandolin Wind.wav
 DR13 -2.02 dB -17.02 dB B3 (I Know) I'm Losing You.wav
 DR12 -2.08 dB -17.37 dB B4 (Find A) Reason To Believe.wav
 ----------------------------------------------------------------------------------------------
 Number of files: 8
 Official DR value: DR12
 ====================================================